<svg xmlns="http://www.w3.org/2000/svg" xmlns:xlink="http://www.w3.org/1999/xlink" version="1.1" x="0px" y="0px" width="100px" height="100px" viewBox="0 0 100 100" enable-background="new 0 0 100 100" xml:space="preserve">
<g id="Your_Icon" display="none">
	<g display="inline">
		<path d="M46.121,84.231c-0.881,0.991-1.383,2.242-1.383,3.58c0,2.985,2.427,5.414,5.414,5.414s5.414-2.429,5.414-5.414    c0-1.335-0.652-2.61-1.529-3.596L54,72h6.271L64,68.749v-1.278L60.271,64h-3.957l-0.016-49.365L50.141,4.064l-6.155,10.604    L43.994,64H40.03L36,67.471v1.278L40.03,72H46L46.121,84.231z M54.234,64H51V9.901l3.124,5.299L54.234,64z M46.011,15.201    L49,9.875V64h-2.926L46.011,15.201z M52,76.366c0,0.16-0.907,0.377-1.965,0.377c-1.18,0-2.035-0.268-2.035-0.428v-1.3    c1,0.172,1.265,0.27,2.035,0.27c0.782,0,1.965-0.092,1.965-0.249V76.366z M52,79.935c0,0.16-0.907,0.375-1.965,0.375    c-1.18,0-2.035-0.266-2.035-0.426v-1.33c1,0.172,1.265,0.27,2.035,0.27c0.782,0,1.965-0.093,1.965-0.249V79.935z M48.07,76.344    c0.018,0.036,0.035,0.083,0.035,0.147H48.07V76.344z M48.07,79.911c0.018,0.036,0.035,0.083,0.035,0.146H48.07V79.911z M48,82.121    c1,0.172,1.265,0.269,2.035,0.269c0.782,0,1.965-0.092,1.965-0.249v1.321c0,0.16-0.896,0.396-2,0.396c-1.104,0-2-0.236-2-0.396    V82.121z M48.07,72.952v-0.146c0.018,0.036,0.035,0.083,0.035,0.146H48.07z M50.15,91.146c-1.839,0-3.334-1.496-3.334-3.334    c0-0.839,0.316-1.622,0.877-2.237c0.659,0.236,1.488,0.364,2.457,0.364c0.965,0,1.792-0.127,2.45-0.361    c0.558,0.611,0.885,1.397,0.885,2.234C53.484,89.649,51.988,91.146,50.15,91.146z M52,72.829c0,0.16-0.907,0.375-1.965,0.375    c-1.18,0-2.035-0.266-2.035-0.426V72h4V72.829z M59.41,70H40.891l-2.288-2l2.288-2H59.41l2.287,2L59.41,70z"/>
		<path d="M50.15,86.585c-1.004,0-1.82,0.816-1.82,1.819c0,1.004,0.816,1.819,1.82,1.819c1.004,0,1.821-0.815,1.821-1.819    C51.971,87.401,51.154,86.585,50.15,86.585z M50.15,88.769c-0.201,0-0.363-0.164-0.363-0.364s0.162-0.364,0.363-0.364    c0.202,0,0.364,0.164,0.364,0.364S50.352,88.769,50.15,88.769z"/>
	</g>
</g>
<g id="Layer_2">
	<g>
		<path d="M50.054,30.861c-10.139,0-18.389,8.249-18.389,18.389c0,10.139,8.25,18.389,18.389,18.389    c10.14,0,18.39-8.25,18.39-18.389C68.443,39.11,60.193,30.861,50.054,30.861z M50.054,64.627c-8.478,0-15.376-6.898-15.376-15.377    s6.898-15.376,15.376-15.376c8.479,0,15.376,6.897,15.376,15.376S58.532,64.627,50.054,64.627z"/>
		<path d="M39.097,73.08c-2.383,0-4.321,1.938-4.321,4.32s1.938,4.32,4.321,4.32c2.382,0,4.32-1.938,4.32-4.32    S41.479,73.08,39.097,73.08z M39.097,78.707c-0.722,0-1.308-0.586-1.308-1.307c0-0.723,0.586-1.309,1.308-1.309    c0.721,0,1.308,0.586,1.308,1.309C40.404,78.121,39.817,78.707,39.097,78.707z"/>
		<path d="M50.075,24.095c-13.871,0-25.156,11.285-25.156,25.156c0,13.871,11.285,25.156,25.156,25.156S75.231,63.121,75.231,49.25    C75.231,35.379,63.946,24.095,50.075,24.095z M50.075,71.395c-12.21,0-22.144-9.934-22.144-22.144    c0-12.209,9.934-22.143,22.144-22.143s22.144,9.934,22.144,22.143C72.219,61.461,62.285,71.395,50.075,71.395z"/>
		<path d="M69.903,30.821c2.383,0,4.321-1.938,4.321-4.321s-1.938-4.321-4.321-4.321c-2.382,0-4.32,1.938-4.32,4.321    S67.521,30.821,69.903,30.821z M69.903,25.192c0.722,0,1.309,0.587,1.309,1.308s-0.587,1.308-1.309,1.308    c-0.721,0-1.308-0.587-1.308-1.308S69.183,25.192,69.903,25.192z"/>
		<path d="M20.386,48.065c2.382,0,4.32-1.938,4.32-4.321c0-2.382-1.938-4.32-4.32-4.32c-2.383,0-4.321,1.938-4.321,4.32    C16.064,46.127,18.003,48.065,20.386,48.065z M20.386,42.437c0.721,0,1.308,0.586,1.308,1.308s-0.587,1.308-1.308,1.308    c-0.722,0-1.309-0.587-1.309-1.308S19.664,42.437,20.386,42.437z"/>
		<path d="M79.87,49.279c-2.383,0-4.321,1.938-4.321,4.321c0,2.381,1.938,4.32,4.321,4.32c2.382,0,4.32-1.939,4.32-4.32    C84.19,51.217,82.252,49.279,79.87,49.279z M79.87,54.906c-0.722,0-1.308-0.586-1.308-1.307c0-0.723,0.586-1.309,1.308-1.309    s1.308,0.586,1.308,1.309C81.178,54.32,80.592,54.906,79.87,54.906z"/>
		<path d="M77.101,22.203C69.877,14.979,60.271,11,50.054,11c-10.217,0-19.823,3.979-27.047,11.203    c-7.224,7.225-11.203,16.83-11.203,27.046c0,10.217,3.979,19.823,11.203,27.047C30.231,83.521,39.837,87.5,50.054,87.5    s19.823-3.979,27.046-11.203c7.225-7.225,11.203-16.83,11.203-27.047C88.304,39.033,84.325,29.428,77.101,22.203z M74.971,74.166    c-6.655,6.656-15.504,10.322-24.917,10.322s-18.261-3.666-24.917-10.322c-6.655-6.654-10.321-15.504-10.321-24.917    c0-9.412,3.666-18.261,10.321-24.916c6.656-6.655,15.505-10.321,24.917-10.321c9.413,0,18.261,3.666,24.917,10.321    s10.32,15.504,10.32,24.916C85.291,58.662,81.626,67.512,74.971,74.166z"/>
		<path d="M75.549,43.905c0,2.382,1.938,4.321,4.321,4.321c2.382,0,4.32-1.938,4.32-4.321s-1.938-4.321-4.32-4.321    C77.487,39.584,75.549,41.523,75.549,43.905z M81.178,43.905c0,0.721-0.586,1.308-1.308,1.308s-1.308-0.587-1.308-1.308    s0.586-1.308,1.308-1.308S81.178,43.184,81.178,43.905z"/>
		<path d="M72.271,34.879c0,2.382,1.938,4.321,4.321,4.321c2.382,0,4.32-1.938,4.32-4.321s-1.938-4.321-4.32-4.321    C74.21,30.558,72.271,32.497,72.271,34.879z M76.593,33.571c0.721,0,1.308,0.587,1.308,1.308s-0.587,1.308-1.308,1.308    c-0.722,0-1.309-0.587-1.309-1.308S75.871,33.571,76.593,33.571z"/>
		<path d="M27.854,63.723c0-2.383-1.938-4.32-4.321-4.32s-4.321,1.938-4.321,4.32s1.938,4.32,4.321,4.32    S27.854,66.105,27.854,63.723z M23.534,65.029c-0.721,0-1.308-0.586-1.308-1.307c0-0.723,0.587-1.309,1.308-1.309    s1.308,0.586,1.308,1.309C24.842,64.443,24.255,65.029,23.534,65.029z"/>
		<path d="M76.593,59.402c-2.383,0-4.321,1.938-4.321,4.32s1.938,4.32,4.321,4.32c2.382,0,4.32-1.938,4.32-4.32    S78.975,59.402,76.593,59.402z M76.593,65.029c-0.722,0-1.309-0.586-1.309-1.307c0-0.723,0.587-1.309,1.309-1.309    c0.721,0,1.308,0.586,1.308,1.309C77.9,64.443,77.313,65.029,76.593,65.029z"/>
		<path d="M30.223,30.821c2.382,0,4.321-1.938,4.321-4.321s-1.938-4.321-4.321-4.321s-4.321,1.938-4.321,4.321    S27.84,30.821,30.223,30.821z M30.223,25.192c0.721,0,1.308,0.587,1.308,1.308s-0.587,1.308-1.308,1.308s-1.308-0.587-1.308-1.308    S29.501,25.192,30.223,25.192z"/>
		<path d="M61.029,73.08c-2.382,0-4.32,1.938-4.32,4.32s1.938,4.32,4.32,4.32c2.383,0,4.321-1.938,4.321-4.32    S63.412,73.08,61.029,73.08z M61.029,78.707c-0.721,0-1.308-0.586-1.308-1.307c0-0.723,0.587-1.309,1.308-1.309    c0.722,0,1.309,0.586,1.309,1.309C62.338,78.121,61.751,78.707,61.029,78.707z"/>
		<path d="M23.534,39.2c2.382,0,4.321-1.938,4.321-4.321s-1.938-4.321-4.321-4.321s-4.321,1.938-4.321,4.321    S21.151,39.2,23.534,39.2z M23.534,33.571c0.721,0,1.308,0.587,1.308,1.308s-0.587,1.308-1.308,1.308s-1.308-0.587-1.308-1.308    S22.812,33.571,23.534,33.571z"/>
		<path d="M61.029,25.522c2.383,0,4.321-1.938,4.321-4.321s-1.938-4.321-4.321-4.321c-2.382,0-4.32,1.938-4.32,4.321    S58.647,25.522,61.029,25.522z M61.029,19.893c0.722,0,1.309,0.587,1.309,1.308s-0.587,1.308-1.309,1.308    c-0.721,0-1.308-0.587-1.308-1.308S60.309,19.893,61.029,19.893z"/>
		<path d="M50.027,75.162c-2.383,0-4.321,1.938-4.321,4.32s1.938,4.32,4.321,4.32c2.382,0,4.32-1.938,4.32-4.32    S52.409,75.162,50.027,75.162z M50.027,80.791c-0.722,0-1.308-0.588-1.308-1.309s0.586-1.309,1.308-1.309    c0.721,0,1.308,0.588,1.308,1.309S50.748,80.791,50.027,80.791z"/>
		<path d="M30.223,67.779c-2.382,0-4.321,1.939-4.321,4.32c0,2.383,1.938,4.322,4.321,4.322s4.321-1.939,4.321-4.322    C34.543,69.719,32.605,67.779,30.223,67.779z M30.223,73.408c-0.721,0-1.308-0.586-1.308-1.309c0-0.721,0.587-1.307,1.308-1.307    s1.308,0.586,1.308,1.307C31.531,72.822,30.944,73.408,30.223,73.408z"/>
		<path d="M50.027,23.439c2.382,0,4.32-1.938,4.32-4.321c0-2.382-1.938-4.32-4.32-4.32c-2.383,0-4.321,1.938-4.321,4.32    C45.707,21.501,47.645,23.439,50.027,23.439z M50.027,17.811c0.721,0,1.308,0.586,1.308,1.308s-0.587,1.308-1.308,1.308    c-0.722,0-1.308-0.587-1.308-1.308S49.306,17.811,50.027,17.811z"/>
		<path d="M24.577,53.6c0-2.383-1.938-4.321-4.321-4.321s-4.321,1.938-4.321,4.321c0,2.381,1.938,4.32,4.321,4.32    S24.577,55.98,24.577,53.6z M18.948,53.6c0-0.723,0.587-1.309,1.308-1.309s1.308,0.586,1.308,1.309    c0,0.721-0.587,1.307-1.308,1.307S18.948,54.32,18.948,53.6z"/>
		<path d="M39.097,25.522c2.382,0,4.32-1.938,4.32-4.321s-1.938-4.321-4.32-4.321c-2.383,0-4.321,1.938-4.321,4.321    S36.714,25.522,39.097,25.522z M39.097,19.893c0.721,0,1.308,0.587,1.308,1.308s-0.587,1.308-1.308,1.308    c-0.722,0-1.308-0.587-1.308-1.308S38.375,19.893,39.097,19.893z"/>
		<path d="M69.903,67.779c-2.382,0-4.32,1.939-4.32,4.32c0,2.383,1.938,4.322,4.32,4.322c2.383,0,4.321-1.939,4.321-4.322    C74.225,69.719,72.286,67.779,69.903,67.779z M69.903,73.408c-0.721,0-1.308-0.586-1.308-1.309c0-0.721,0.587-1.307,1.308-1.307    c0.722,0,1.309,0.586,1.309,1.307C71.212,72.822,70.625,73.408,69.903,73.408z"/>
	</g>
</g>
</svg>